<svg preserveAspectRatio="none" overflow="visible" style="display: block;" width="16" height="16" viewBox="0 0 16 16" fill="none" xmlns="http://www.w3.org/2000/svg">
<g id="close_regular">
<path id="Icon" fill-rule="evenodd" clip-rule="evenodd" d="M3.53667 3.13067C3.37524 3.19423 3.24267 3.3147 3.164 3.46933C3.09733 3.596 3.08933 3.63467 3.1 3.78667C3.10667 3.882 3.13267 4.002 3.15867 4.05333C3.18467 4.10467 4.07133 5.01333 5.12933 6.07333L7.05267 8L5.12933 9.92667C4.07133 10.986 3.18467 11.8947 3.15933 11.9453C3.12674 12.0267 3.10673 12.1126 3.1 12.2C3.09203 12.2947 3.10498 12.3901 3.13794 12.4793C3.17091 12.5685 3.22308 12.6493 3.29075 12.7161C3.35843 12.7829 3.43996 12.834 3.52958 12.8658C3.61919 12.8975 3.7147 12.9092 3.80933 12.9C3.89467 12.892 4.00533 12.8653 4.056 12.84C4.106 12.8153 5.01333 11.9287 6.07333 10.8707L8 8.94733L9.92667 10.8707C10.9867 11.9287 11.8947 12.8153 11.9453 12.8407C11.996 12.866 12.1107 12.8927 12.2 12.9C12.4893 12.9233 12.734 12.7693 12.8607 12.4833C12.9233 12.3407 12.914 12.092 12.8407 11.9453C12.8153 11.8947 11.9287 10.986 10.8707 9.92667L8.94733 8L10.8707 6.07333C11.9287 5.01333 12.8147 4.106 12.8393 4.05667C12.992 3.75333 12.8693 3.35933 12.568 3.182C12.458 3.11733 12.412 3.10667 12.24 3.10733C12.0987 3.10733 12.0127 3.122 11.9467 3.15667C11.8953 3.18333 10.9867 4.07133 9.92667 5.12933L8 7.05267L6.07333 5.12933C5.01333 4.07133 4.10533 3.18467 4.05467 3.15933C3.93 3.09667 3.66733 3.082 3.53667 3.13067Z" fill="var(--fill-0, #C0563E)" style="fill:#C0563E;fill:color(display-p3 0.7529 0.3373 0.2431);fill-opacity:1;"/>
</g>
</svg>
