<svg preserveAspectRatio="none" overflow="visible" style="display: block;" width="32" height="32" viewBox="0 0 32 32" fill="none" xmlns="http://www.w3.org/2000/svg">
<g id="Group Container">
<g id="Icon">
</g>
<path id="Icon 2" fill-rule="evenodd" clip-rule="evenodd" d="M16 17.8853L23.5427 25.428C23.7941 25.6709 24.1309 25.8053 24.4805 25.8022C24.8301 25.7992 25.1645 25.659 25.4118 25.4118C25.659 25.1645 25.7992 24.8301 25.8022 24.4805C25.8053 24.1309 25.6709 23.7941 25.428 23.5427L17.8853 16L25.428 8.45733C25.6709 8.20586 25.8053 7.86906 25.8022 7.51947C25.7992 7.16987 25.659 6.83545 25.4118 6.58824C25.1645 6.34103 24.8301 6.20081 24.4805 6.19777C24.1309 6.19473 23.7941 6.32912 23.5427 6.572L16 14.1147L8.45733 6.572C8.20473 6.33513 7.86988 6.20582 7.52364 6.21144C7.1774 6.21707 6.84692 6.35718 6.60215 6.60213C6.35737 6.84708 6.21749 7.17765 6.21212 7.5239C6.20674 7.87014 6.33628 8.2049 6.57333 8.45733L14.1147 16L6.572 23.5427C6.44465 23.6657 6.34308 23.8128 6.2732 23.9755C6.20332 24.1381 6.16654 24.3131 6.165 24.4901C6.16346 24.6672 6.1972 24.8427 6.26424 25.0066C6.33128 25.1705 6.43028 25.3193 6.55547 25.4445C6.68066 25.5697 6.82953 25.6687 6.9934 25.7358C7.15726 25.8028 7.33283 25.8365 7.50987 25.835C7.68691 25.8335 7.86187 25.7967 8.02454 25.7268C8.18721 25.6569 8.33434 25.5553 8.45733 25.428L16 17.8853Z" fill="var(--fill-0, #8C8C8C)" style="fill:#8C8C8C;fill:color(display-p3 0.5479 0.5479 0.5479);fill-opacity:1;"/>
</g>
</svg>
